# xmcd
#
# Track frame offsets:
#	150
#	20545
#	39565
#	58682
#	75856
#	95632
#	113395
#	134697
#	152458
#	167235
#	190057
#	206945
#
# Disc length: 3048 seconds
#
# Revision: 1
# Processed by: cddbd v1.5.1PL2 Copyright (c) Steve Scherf et al.
# Submitted via: audiograbber 1.83.01
#
DISCID=980be60c
DTITLE=Willie Clayton - Full Circle
DYEAR=2005
DGENRE=Blues
TTITLE0=Going Crazy
TTITLE1=If You Ever Get Lonely (Call Me)
TTITLE2=Stay Together
TTITLE3=All My Love
TTITLE4=Playing Your Game
TTITLE5=Can We Talk
TTITLE6=I'll Make It Good To You
TTITLE7=Take It 2 Da Club
TTITLE8=It's A Good Feeling
TTITLE9=Meet Me Tonight
TTITLE10=Georgia On My Mind
TTITLE11=Hold Me
EXTD=
EXTT0=
EXTT1=
EXTT2=
EXTT3=
EXTT4=
EXTT5=
EXTT6=
EXTT7=
EXTT8=
EXTT9=
EXTT10=
EXTT11=
PLAYORDER=
